<svg id="Layer_1" height="512" viewBox="0 0 512 512" width="512" xmlns="http://www.w3.org/2000/svg" data-name="Layer 1"><path d="m477.46 321.11-143.095 40.14 25.352 91.11a60.3 60.3 0 0 0 118.283-16.49v-114.44z" fill="#86909d"/><path d="m34.37 321.23-.37.2v114.44a60.295 60.295 0 0 0 118.275 16.49l25.368-91.11z" fill="#86909d"/><path d="m81.7 478.47a60.139 60.139 0 0 1 -17.7-42.6v-106.364l-29.63-8.276-.37.2v114.44a60.323 60.323 0 0 0 75.3 58.352 60.18 60.18 0 0 1 -27.6-15.752z" fill="#5e656d"/><path d="m270.52 99.27v23h-29.04v-23a14.52 14.52 0 1 1 29.04 0z" fill="#afb9bf"/><path d="m300.52 119h-89.04a20.641 20.641 0 0 0 -20.48 20.27v9.73h130v-9.73a20.641 20.641 0 0 0 -20.48-20.27z" fill="#86909d"/><path d="m381.73 145h-251.46a114.165 114.165 0 1 0 60.67 211.014 33.463 33.463 0 0 0 60.8-16.64 34.544 34.544 0 0 0 .06-4.062 9.885 9.885 0 0 1 9.94-10.312h.02a9.9 9.9 0 0 1 9.98 10.32 32.394 32.394 0 0 0 .06 4.055 33.451 33.451 0 0 0 57.28 20.884q2.685 1.395 5.43 2.635a114.179 114.179 0 0 0 142.89-41.783 112.641 112.641 0 0 0 18.6-62.9 114.082 114.082 0 0 0 -114.27-113.211z" fill="#afb9bf"/><path d="m382.38 182.6a76.34 76.34 0 1 1 -76.35 76.34 76.342 76.342 0 0 1 76.35-76.34z" fill="#a3bee3"/><path d="m129.62 182.6a76.34 76.34 0 1 1 -76.34 76.34 76.344 76.344 0 0 1 76.34-76.34z" fill="#a3bee3"/><path d="m412.31 245.44a13.5 13.5 0 1 1 -13.5 13.5 13.493 13.493 0 0 1 13.5-13.5z" fill="#6d7486"/><path d="m382.4 215.54a13.5 13.5 0 1 1 -13.49 13.49 13.493 13.493 0 0 1 13.49-13.49z" fill="#6d7486"/><path d="m382.4 275.34a13.5 13.5 0 1 1 -13.49 13.5 13.5 13.5 0 0 1 13.49-13.5z" fill="#6d7486"/><path d="m352.5 245.44a13.5 13.5 0 1 1 -13.5 13.5 13.5 13.5 0 0 1 13.5-13.5z" fill="#6d7486"/><path d="m306.4 320.11a16.735 16.735 0 1 1 -16.73 16.73 16.73 16.73 0 0 1 16.73-16.73z" fill="#e87187"/><path d="m288.73 180.94a12.5 12.5 0 1 1 0 24.99h-32.73v-24.99z" fill="#6994fe"/><path d="m256 180.94v24.99h-32.73a12.5 12.5 0 1 1 0-24.99z" fill="#80aaff"/><path d="m217.6 320.11a16.735 16.735 0 1 1 -16.73 16.73 16.73 16.73 0 0 1 16.73-16.73z" fill="#f3ce7d"/><path d="m172.88 258.82a14.291 14.291 0 0 1 -14.29 14.31h-14.33v14.31a14.311 14.311 0 1 1 -28.62.24v-14.55h-14.32a14.316 14.316 0 0 1 0-28.63h14.32v-14.31a14.311 14.311 0 0 1 28.62 0v14.31h14.31a14.308 14.308 0 0 1 14.31 14.31z" fill="#6d7486"/><path d="m94.38 352.4a114.108 114.108 0 0 1 65.89-207.4h-30a114.175 114.175 0 1 0 15 227.363 113.736 113.736 0 0 1 -50.89-19.963z" fill="#868f93"/><path d="m83.28 258.94a76.361 76.361 0 0 1 61.342-74.858 76.34 76.34 0 1 0 0 149.716 76.361 76.361 0 0 1 -61.342-74.858z" fill="#7d97b7"/><g fill="#284268"><path d="m173.935 244.7a19.948 19.948 0 0 0 -14.362-5.7h-8.573v-8.859a20.234 20.234 0 0 0 -20.01-20.141 19.9 19.9 0 0 0 -19.99 20.192v8.808h-8.727a20.132 20.132 0 0 0 -20.141 19.894 19.992 19.992 0 0 0 20.192 20.106h8.676v8.733a20.115 20.115 0 0 0 19.947 20.267h.176a19.759 19.759 0 0 0 14.181-6.134 20.368 20.368 0 0 0 5.7-14.425v-8.441h8.589a20.1 20.1 0 0 0 14.356-5.89 19.943 19.943 0 0 0 -.01-28.41zm-5.935 14.119a8.308 8.308 0 0 1 -8.428 8.181h-14.309a6.342 6.342 0 0 0 -6.263 6.129v14.363a8.236 8.236 0 0 1 -8.11 8.383 7.648 7.648 0 0 1 -5.653-2.386 7.957 7.957 0 0 1 -2.237-5.857v-14.5a6.43 6.43 0 0 0 -6.361-6.132h-14.265a8.121 8.121 0 0 1 -5.857-2.419 7.628 7.628 0 0 1 -2.385-5.619 8.075 8.075 0 0 1 8.192-7.962h14.313a6.76 6.76 0 0 0 6.363-6.5v-14.257a8 8 0 1 1 16-.051v14.313a6.669 6.669 0 0 0 6.261 6.5h14.313a8.175 8.175 0 0 1 5.934 2.186 7.757 7.757 0 0 1 2.492 5.626z"/><path d="m412.306 239.441a19.5 19.5 0 1 0 19.5 19.5 19.518 19.518 0 0 0 -19.5-19.5zm0 26.993a7.5 7.5 0 1 1 7.5-7.5 7.5 7.5 0 0 1 -7.5 7.5z"/><path d="m372 258.938a19.5 19.5 0 1 0 -19.5 19.5 19.519 19.519 0 0 0 19.5-19.5zm-19.5 7.5a7.5 7.5 0 1 1 7.5-7.5 7.5 7.5 0 0 1 -7.5 7.496z"/><path d="m382.4 269.344a19.5 19.5 0 1 0 19.5 19.5 19.518 19.518 0 0 0 -19.5-19.5zm0 26.993a7.5 7.5 0 1 1 7.5-7.5 7.506 7.506 0 0 1 -7.5 7.5z"/><path d="m382.4 248.531a19.5 19.5 0 1 0 -19.5-19.5 19.518 19.518 0 0 0 19.5 19.5zm0-26.993a7.5 7.5 0 1 1 -7.5 7.5 7.505 7.505 0 0 1 7.5-7.5z"/><path d="m382.376 176.6a82.342 82.342 0 1 0 82.342 82.342 82.435 82.435 0 0 0 -82.342-82.342zm0 152.683a70.342 70.342 0 1 1 70.342-70.341 70.422 70.422 0 0 1 -70.342 70.337z"/><path d="m129.624 176.6a82.342 82.342 0 1 0 82.341 82.342 82.434 82.434 0 0 0 -82.341-82.342zm0 152.683a70.342 70.342 0 1 1 70.341-70.341 70.421 70.421 0 0 1 -70.341 70.337z"/><path d="m381.734 139h-54.753c-.4-14-12.359-26-26.457-26h-23.524v-13.732c0-9.181-7-16.972-15-19.586v-17.482a23 23 0 1 1 46 0v18.274a32 32 0 0 0 64 0v-64.584a6 6 0 1 0 -12 0v64.584a20 20 0 0 1 -40 0v-18.274a35 35 0 1 0 -70 0v17.408c-8 2.531-15 10.382-15 19.66v13.732h-23.524c-14.1 0-26.061 12-26.457 26h-54.753a120.088 120.088 0 0 0 -102.266 183.435v113.438a66.289 66.289 0 0 0 130.036 18.127l24.664-86.624c2.3-1.114 4.591-2.3 6.841-3.572a39.469 39.469 0 0 0 68.18-23.986 40.191 40.191 0 0 0 .065-4.87 3.833 3.833 0 0 1 1.066-2.834 3.988 3.988 0 0 1 2.9-1.25 3.956 3.956 0 0 1 3.99 4.1 40.149 40.149 0 0 0 .064 4.817 39.442 39.442 0 0 0 63.632 28.153l24.497 86.066a66.305 66.305 0 0 0 130.065-18.127v-113.691a119.936 119.936 0 0 0 -102.266-183.182zm-134.734-39.731c0-4.7 4.3-8.525 9-8.525s9 3.824 9 8.524v13.732h-18zm-35.524 25.731h89.048a14.683 14.683 0 0 1 14.437 13.553h-117.922a14.683 14.683 0 0 1 14.437-13.553zm-64.952 325.717a54.306 54.306 0 0 1 -106.524-14.844v-97.284a118.524 118.524 0 0 0 20.856 18.655 120.175 120.175 0 0 0 107.733 15.879zm325.476-14.844a54.289 54.289 0 0 1 -106.494 14.844l-22.194-77.985a120.386 120.386 0 0 0 38.334 6.268h.089a119.468 119.468 0 0 0 85.307-35.577c1.692-1.7 2.958-3.412 4.958-5.2zm-13.534-100.9a107.41 107.41 0 0 1 -76.737 32.027h-.078a108.541 108.541 0 0 1 -49.811-12.116 6 6 0 0 0 -7.051 1.148 27.443 27.443 0 0 1 -47.01-17.127 28.334 28.334 0 0 1 -.045-3.371 15.582 15.582 0 0 0 -4.39-11.656 16.019 16.019 0 0 0 -11.575-4.878h-.042a15.985 15.985 0 0 0 -11.57 4.913 15.639 15.639 0 0 0 -4.355 11.642 27.438 27.438 0 0 1 -25.975 28.725 27.372 27.372 0 0 1 -23.973-11.712 6 6 0 0 0 -8.089-1.654 108.393 108.393 0 1 1 -57.493-200.359h251.462a108.1 108.1 0 0 1 76.732 184.416z"/><path d="m217.6 314.112a22.733 22.733 0 1 0 22.732 22.733 22.759 22.759 0 0 0 -22.732-22.733zm0 33.465a10.733 10.733 0 1 1 10.732-10.732 10.745 10.745 0 0 1 -10.732 10.732z"/><path d="m306.4 314.112a22.733 22.733 0 1 0 22.733 22.733 22.758 22.758 0 0 0 -22.733-22.733zm0 33.465a10.733 10.733 0 1 1 10.733-10.732 10.744 10.744 0 0 1 -10.733 10.732z"/><path d="m307.226 193.5a18.52 18.52 0 0 0 -18.493-18.5h-65.466a18.5 18.5 0 0 0 0 37h65.466a18.52 18.52 0 0 0 18.493-18.5zm-57.226 6.5h-26.733a6.5 6.5 0 0 1 0-13h26.733zm12-13h26.733a6.5 6.5 0 0 1 0 13h-26.733z"/><path d="m59.64 394.52a6 6 0 0 0 -6.307 5.677l-2.7 51.451a6 6 0 0 0 5.678 6.306c.106.006.213.008.319.008a6 6 0 0 0 5.987-5.685l2.7-51.451a6 6 0 0 0 -5.677-6.306z"/><path d="m60.96 369.339a6.007 6.007 0 0 0 -6.306 5.678l-.253 4.827a6 6 0 0 0 5.677 6.306c.107.006.214.009.32.009a6 6 0 0 0 5.986-5.686l.254-4.827a6 6 0 0 0 -5.678-6.307z"/></g></svg>