<svg height="512" viewBox="0 0 60 60" width="512" xmlns="http://www.w3.org/2000/svg"><g id="Page-1" fill="none" fill-rule="evenodd"><g id="033---Cloud-Gaming" fill-rule="nonzero"><path id="Shape" d="m13 37h-1c-6.07513225 0-11-4.9248678-11-11s4.92486775-11 11-11c.623565-.0030798 1.2461215.0504735 1.86.16 1.427149-3.0326141 4.4212431-5.02097 7.77-5.16 1.9678376-6.08875505 8.0738821-9.84005753 14.3946544-8.84348326s10.976386 6.4446301 10.9753456 12.84348326c.019924.3497165.019924.7002835 0 1.05.34 0 .7-.05 1-.05 6.0751322.0000001 10.9999998 4.9248678 10.9999998 11s-4.9248676 10.9999999-10.9999998 11z" fill="#00bcd4"/><path id="Shape" d="m48 15c-.35 0-.71 0-1 .05.019924-.3497165.019924-.7002835 0-1.05 0-3.4478144-1.3696389-6.75441524-3.8076118-9.19238816-2.437973-2.43797292-5.7445738-3.80761184-9.1923882-3.80761184-.49788.00446883-.9952019.0345084-1.49.09 6.5501491.76600988 11.4889823 6.31521239 11.49 12.91.019924.3497165.019924.7002835 0 1.05.34 0 .7-.05 1-.05 5.6723409.0182317 10.4006953 4.3467764 10.9186843 9.9954462s-3.3442621 10.7649821-8.9186843 11.8145538v.19h1c6.0751322 0 11-4.9248678 11-11s-4.9248678-11-11-11z" fill="#00838f"/><path id="Shape" d="m40.83 9.15c-.2923118.00001923-.5699973-.12786225-.76-.35-1.5177498-1.77444941-3.7349995-2.79723347-6.07-2.8-.5522847 0-1-.44771525-1-1s.4477153-1 1-1c2.9180174.00022682 5.6903707 1.27499794 7.59 3.49.1724034.201559.2576705.46335301.2370412.72778336-.0206293.26443034-.145465.50983336-.3470412.68221664-.179713.15852397-.4103774.24724105-.65.25z" fill="#f5f5f5"/><path id="Shape" d="m59 45c-.0031343 5.6330368-3.3820412 10.7155543-8.5749618 12.8983709-5.1929206 2.1828165-11.1883056 1.0407327-15.2150382-2.8983709h-10.42c-4.5141198 4.422914-11.4317198 5.2731855-16.88256792 2.0751078-5.45084814-3.1980777-8.08329726-9.651477-6.42455496-15.7496751s7.19735758-10.3290244 13.51712288-10.3254327c2.3637667-.0024125 4.6883561.6037027 6.75 1.76.15.07.29.16.43.24h15.64c.14-.08.28-.17.43-.24 2.0616439-1.1562973 4.3862333-1.7624125 6.75-1.76 3.7130309 0 7.2739856 1.4749958 9.8994949 4.1005051s4.1005051 6.186464 4.1005051 9.8994949z" fill="#f5f5f5"/><path id="Shape" d="m56.41 36.89c-2.6256389-3.6945893-6.8774544-5.8894354-11.41-5.89-.5113378-.0005158-1.0222491.0295378-1.53.09 7.0925397.7851395 12.4596186 6.7791354 12.4596186 13.915s-5.3670789 13.1298605-12.4596186 13.915c.508292.0528691 1.018966.079571 1.53.08 5.2378765-.0006524 10.0372683-2.925092 12.4393152-7.5797157s2.0049119-10.2607625-1.0293152-14.5302843z" fill="#cfd8dc"/><path id="Shape" d="m13.5 58.92c.4983181.0521085.9989663.0788097 1.5.08 3.6607939-.0020818 7.1751474-1.437977 9.79-4h-3c-2.2449014 2.2002769-5.1649538 3.5810496-8.29 3.92z" fill="#cfd8dc"/><path id="Shape" d="m21.75 32.76c-2.0616439-1.1562973-4.3862333-1.7624125-6.75-1.76-4.5325456.0005646-8.78436111 2.1954107-11.41 5.89-1.4937663-2.2428931-.90526657-5.2701001 1.32-6.79 4.02440887-2.7347873 8.987461-3.7165692 13.75-2.72 1.1590315.2444527 2.1588885.9714099 2.7488402 1.998575.5899517 1.0271652.7140444 2.2571171.3411598 3.381425z" fill="#9e9e9e"/><path id="Shape" d="m18.66 27.38c-1.2038158-.2513616-2.4302223-.3786934-3.66-.38-.53 0-1.06 0-1.58.07.7517334.0626582 1.4995038.1661442 2.24.31 1.966519.4204008 3.3486628 2.1902191 3.28 4.2.9776941.287442 1.9202083.6832309 2.81 1.18.3728846-1.1243079.2487919-2.3542598-.3411598-3.381425-.5899517-1.0271651-1.5898087-1.7541223-2.7488402-1.998575z" fill="#707070"/><path id="Shape" d="m56.41 36.89c-2.6256389-3.6945893-6.8774544-5.8894354-11.41-5.89-2.3637667-.0024125-4.6883561.6037027-6.75 1.76-.3728846-1.1243079-.2487919-2.3542598.3411598-3.381425.5899517-1.0271651 1.5898087-1.7541223 2.7488402-1.998575 4.762539-.9965692 9.7255911-.0147873 13.75 2.72 2.2252666 1.5198999 2.8137663 4.5471069 1.32 6.79z" fill="#9e9e9e"/><path id="Shape" d="m55.09 30.1c-2.9750033-2.0246164-6.491432-3.104986-10.09-3.1-.48 0-1 0-1.42.07 3.0453698.2612448 5.974056 1.2936841 8.51 3 1.4264536.9728517 2.2326425 2.6270601 2.12 4.35.8229195.7278496 1.560937 1.5463781 2.2 2.44 1.4736185-2.2369482.8868859-5.2417301-1.32-6.76z" fill="#707070"/><path id="Shape" d="m32 26v7h-4v-7c0-.5522847.4477153-1 1-1h2c.5522847 0 1 .4477153 1 1z" fill="#607d8b"/><path id="Shape" d="m32 26v7h-4v-7c0-.5522847.4477153-1 1-1h2c.5522847 0 1 .4477153 1 1z" fill="#37474f"/><circle id="Oval" cx="41" cy="48" fill="#e91e63" r="3"/><path id="Shape" d="m41 45c-.528668.0025877-1.0468569.1476805-1.5.42.9107595.540413 1.4691179 1.5209773 1.4691179 2.58s-.5583584 2.039587-1.4691179 2.58c.4531431.2723195.971332.4174123 1.5.42 1.6568542-.0000001 2.9999999-1.3431458 2.9999999-3s-1.3431457-2.9999999-2.9999999-3z" fill="#ad1457"/><circle id="Oval" cx="49" cy="42" fill="#60a917" r="3"/><path id="Shape" d="m49 39c-.528668.0025877-1.0468569.1476805-1.5.42.9107595.540413 1.4691179 1.5209773 1.4691179 2.58s-.5583584 2.039587-1.4691179 2.58c.4531431.2723195.971332.4174123 1.5.42 1.6568542 0 3-1.3431458 3-3s-1.3431458-3-3-3z" fill="#549414"/><path id="Shape" d="m21 43h-3c-.5522847 0-1-.4477153-1-1v-3c0-.5522847-.4477153-1-1-1h-2c-.5522847 0-1 .4477153-1 1v3c0 .5522847-.4477153 1-1 1h-3c-.55228475 0-1 .4477153-1 1v2c0 .5522847.44771525 1 1 1h3c.5522847 0 1 .4477153 1 1v3c0 .5522847.4477153 1 1 1h2c.5522847 0 1-.4477153 1-1v-3c0-.5522847.4477153-1 1-1h3c.5522847 0 1-.4477153 1-1v-2c0-.5522847-.4477153-1-1-1z" fill="#607d8b"/><g fill="#000"><path id="Shape" d="m48 14c-.0137806-6.75848529-4.8538456-12.54228148-11.5040745-13.74717535s-13.2118426 2.51313692-15.5959255 8.83717535c-3.1853678.34613608-6.0079851 2.2080208-7.58 5-.4379481-.0548953-.8786538-.0849434-1.32-.09-4.40946528.0080703-8.45929821 2.433807-10.54733767 6.3175604s-1.87787968 8.5998087.54733767 12.2824396c-.38236343 1.4257783-.22570947 2.9424734.44 4.26-1.5883566 2.4179714-2.43637009 5.247-2.44 8.14.0029587 5.9605069 3.53476027 11.3537149 8.99716415 13.7390441 5.46240385 2.3853292 11.81883825 1.3101282 16.19283585-2.7390441h9.62c5.5536947 5.0865701 14.0180643 5.2665715 19.78298.4207003s7.0429457-13.2151359 2.98702-19.5607003c.6590115-1.3200613.8085352-2.8366594.42-4.26 2.4252174-3.6826309 2.6353771-8.3986862.5473377-12.2824396-2.0880395-3.8837534-6.1378724-6.3094901-10.5473377-6.3175604zm-46 12c0-5.5228475 4.4771525-10 10-10 1.9730774-.0063323 3.9027673.5788444 5.54 1.68.3001031.2000687.6841452.2248368 1.0074614.0649743.3233161-.1598626.5367869-.4800688.56-.8400001.023213-.3599312-.1473583-.7049055-.4474614-.9049742-1.0022971-.6732402-2.1016771-1.1892069-3.26-1.53 1.4344209-2.0914501 3.7755523-3.3788869 6.31-3.47h.22c1.756403-.0251036 3.4707167.5381206 4.87 1.6.4418278.3313708 1.0686291.2418278 1.4-.2.3313708-.4418278.2418278-1.0686291-.2-1.4-1.4368206-1.08209346-3.1410594-1.75272698-4.93-1.94 2.3315558-5.14486251 7.9354541-7.96718928 13.457282-6.77757612s9.466469 6.06906094 9.472718 11.71757612v.17c-1.6662638.2699658-3.2552963.893985-4.66 1.83-.4583963.3092795-.5792795.9316037-.27 1.39s.9316037.5792795 1.39.27c1.6394914-1.0940872 3.5690082-1.6722457 5.54-1.66 3.4779489-.0207825 6.7168898 1.7670151 8.5528914 4.7209376 1.8360016 2.9539226 2.0053196 6.649635.4471086 9.7590624-.3682927-.468005-.8068193-.8761722-1.3-1.21-4.2662364-2.893572-9.5250945-3.9294624-14.57-2.87-2.5893246.549059-4.3432776 2.9683044-4.06 5.6h-4.07v-6c0-1.1045695-.8954305-2-2-2v-2c0-.5522847-.4477153-1-1-1s-1 .4477153-1 1v2c-1.1045695 0-2 .8954305-2 2v6h-4.07c.2832776-2.6316956-1.4706754-5.050941-4.06-5.6-5.0289675-1.0453302-10.26690843-.0100072-14.52 2.87-.49318067.3338278-.93170732.741995-1.3 1.21-.69348395-1.3914117-1.05300067-2.9253497-1.05-4.48zm29 0v6h-2v-6zm-25.53 4.93c3.80459131-2.5863531 8.4974656-3.5140983 13-2.57 1.4010433.2782758 2.4394677 1.4644602 2.53 2.89-5.9209757-2.6096106-12.84970736-1.0936979-17.14 3.75-.34406736-1.55809.29314573-3.168933 1.61-4.07zm39.53 27.07c-3.3984561-.0009749-6.661411-1.3327199-9.09-3.71-.1862606-.1847442-.4376601-.2888954-.7-.29h-10.42c-.2623399.0011046-.5137394.1052558-.7.29-4.8198265 4.7284547-12.457203 4.9799821-17.57769939.5788995-5.12049638-4.4010827-6.01937478-11.9895478-2.06880128-17.4651282s11.43535677-7.015322 17.22650067-3.5437713c.1543557.0915893.3305167.1399472.51.14h15.64c.1794833-.0000528.3556443-.0484107.51-.14 4.710872-2.8335827 10.6948621-2.397626 14.9452955 1.0888222 4.2504335 3.4864483 5.8483472 9.269602 3.9908642 14.4436975-1.8574829 5.1740954-6.768766 8.6204693-12.2661597 8.6074803zm0-28c-2.0651005-.0044856-4.1084961.4212218-6 1.25.0871586-1.4165129 1.1107892-2.5998298 2.5-2.89 4.5025344-.9440983 9.1954087-.0163531 13 2.57 1.3281517.8931371 1.9778681 2.5055429 1.64 4.07-2.8316413-3.1773314-6.883991-4.9961598-11.14-5z"/><path id="Shape" d="m41 44c-2.209139 0-4 1.790861-4 4s1.790861 4 4 4 4-1.790861 4-4-1.790861-4-4-4zm0 6c-1.1045695 0-2-.8954305-2-2s.8954305-2 2-2 2 .8954305 2 2-.8954305 2-2 2z"/><path id="Shape" d="m49 38c-2.209139 0-4 1.790861-4 4s1.790861 4 4 4 4-1.790861 4-4-1.790861-4-4-4zm0 6c-1.1045695 0-2-.8954305-2-2s.8954305-2 2-2 2 .8954305 2 2-.8954305 2-2 2z"/><path id="Shape" d="m21 42h-3v-3c0-1.1045695-.8954305-2-2-2h-2c-1.1045695 0-2 .8954305-2 2v3h-3c-1.1045695 0-2 .8954305-2 2v2c0 1.1045695.8954305 2 2 2h3v3c0 1.1045695.8954305 2 2 2h2c1.1045695 0 2-.8954305 2-2v-3h3c1.1045695 0 2-.8954305 2-2v-2c0-1.1045695-.8954305-2-2-2zm0 4h-3c-1.1045695 0-2 .8954305-2 2v3h-2v-3c0-1.1045695-.8954305-2-2-2h-3v-2h3c1.1045695 0 2-.8954305 2-2v-3h2v3c0 1.1045695.8954305 2 2 2h3z"/></g></g></g></svg>