<svg width="102" height="82" viewBox="0 0 102 82" xmlns="http://www.w3.org/2000/svg" xmlns:xlink="http://www.w3.org/1999/xlink"><title>лого</title><defs><linearGradient x1="79.642%" y1="0%" x2="50%" y2="62.139%" id="a"><stop stop-color="#7F7E7E" offset="0%"/><stop stop-color="#9C9C9C" offset="100%"/></linearGradient><linearGradient x1="-15.56%" y1="28.257%" x2="65.786%" y2="50%" id="b"><stop stop-color="#B8B7B7" offset="0%"/><stop stop-color="#9C9C9C" offset="100%"/></linearGradient><linearGradient x1="0%" y1="47.175%" x2="40.482%" y2="39.9%" id="c"><stop stop-color="#2981B6" offset="0%"/><stop stop-color="#36A9E0" offset="100%"/></linearGradient><path d="M4.72.885c-2.015.286-4.547.648-4.547.648s.29 1.109.404 1.909c.396 2.754.537 3.527.537 6.634V20.12H9.78l-.008-9.765c0-.802.387-2.894 2.23-2.857 1.899.04 2.1 1.513 2.1 2.342v10.28h8.62l.076-13.802c0-1.646.206-3.599-1.62-4.785C19.915.713 18.543.37 17.49.323c-1.05-.047-2.123.182-3.727 1.011-1.605.83-1.656.987-2.655 1.442-.592.273-1.336-.14-1.41-.869C9.6.964 9.434.006 9.434.006s-1.736.307-4.715.88" id="d"/><linearGradient x1="50%" y1="0%" x2="50%" y2="100%" id="e"><stop stop-color="#83C05D" offset="0%"/><stop stop-color="#0F8536" offset="100%"/></linearGradient><path d="M3.233 3.3C1.053 5.52.347 8.421.347 10.86c0 3.637 1.493 6.379 3.35 7.714 1.538 1.108 4.09 2.193 7.83 2.193 3.313 0 6.174-.543 7.618-2.005 0 0-1.193-1.11-2.322-3.833 0 0-.945.28-1.493.474-1.08.381-2.453.596-3.1.575-1.418-.05-2.522-.613-3.076-1.05-.65-.51-.98-1.6-1.153-2.085l9.106-1.072a16.8 16.8 0 0 1-.076-1.612c0-2.281.488-4.324 1.461-6.131a10.21 10.21 0 0 0-.628-.752c-2.096-2.273-4.203-3.21-7.052-3.21-3.266 0-5.4 1.016-7.58 3.235m6.15 6.295c-.663-.091-1.268-.76-1.268-1.374 0-.908.297-1.228.879-1.923.439-.526 1.51-.825 2.22-.825.589 0 1.343.49 1.82 1.212.476.72.603 1.2.465 1.834-.052.236-.408.683-1.117.763-.203.028-.747.063-1.579.222-.416.086-.733.12-1.003.12-.15 0-.287-.011-.417-.03" id="g"/><linearGradient x1="50%" y1="0%" x2="50%" y2="100%" id="h"><stop stop-color="#FFD935" offset="0%"/><stop stop-color="#ED813F" offset="100%"/></linearGradient><path d="M3.21 3.24C1.03 5.459.324 8.36.324 10.8c0 3.636 1.494 6.378 3.35 7.714 1.538 1.107 4.09 2.191 7.83 2.191 2.538 0 4.808-.32 6.381-1.127V17.04a16.322 16.322 0 0 1-1.086-2.172s-.943.28-1.492.474c-1.08.382-2.453.598-3.1.574-1.419-.049-2.522-.611-3.077-1.047-.649-.513-.98-1.6-1.153-2.088l9.908-1.102v-.406a25.593 25.593 0 0 1-.045-1.47c0-.16.011-.31.03-.452-.06-2.544-.354-4.868-.875-6.977C15.167.71 13.255.006 10.788.006 7.523.006 5.39 1.02 3.21 3.24m6.15 6.294c-.664-.089-1.269-.76-1.269-1.373 0-.908.297-1.229.878-1.923.44-.525 1.512-.824 2.221-.824.589 0 1.343.489 1.82 1.21.476.722.603 1.2.464 1.837-.05.234-.407.68-1.117.76-.203.028-.746.063-1.578.224a4.97 4.97 0 0 1-.998.119c-.153 0-.29-.011-.422-.03" id="j"/><linearGradient x1="50%" y1="0%" x2="50%" y2="100%" id="k"><stop stop-color="#FF8C6D" offset="0%"/><stop stop-color="#F9211D" offset="100%"/></linearGradient><linearGradient x1="-3047.235%" y1="57.72%" x2="8325.179%" y2="29.38%" id="m"><stop stop-color="#D1D1D1" offset="0%"/><stop stop-color="#9D9D9C" offset="100%"/></linearGradient><path id="n" d="M.001.45v1.229h2.596v6.877h1.43V1.679h2.596V.449z"/><linearGradient x1="-699.181%" y1="58.355%" x2="1775.539%" y2="30.014%" id="o"><stop stop-color="#D1D1D1" offset="0%"/><stop stop-color="#9D9D9C" offset="100%"/></linearGradient><path d="M.22 3.455c0 1.753 1.086 3.062 2.904 3.062 1.326 0 2.378-.74 2.677-2.025H4.554c-.263.75-.687 1.068-1.407 1.068-1.006 0-1.59-.67-1.624-1.854h4.358V3.57C5.88 1.543 4.805.28 3.078.28 1.42.28.22 1.611.22 3.454m2.848-2.208c.858 0 1.429.603 1.51 1.593H1.545c.126-1.035.664-1.593 1.522-1.593" id="q"/><linearGradient x1="-920.439%" y1="62.373%" x2="1974.438%" y2="25.538%" id="r"><stop stop-color="#D1D1D1" offset="0%"/><stop stop-color="#9D9D9C" offset="100%"/></linearGradient><path d="M.414 3.455c0 1.753 1.086 3.062 2.905 3.062 1.326 0 2.379-.74 2.677-2.025H4.749c-.264.75-.686 1.068-1.408 1.068-1.005 0-1.59-.67-1.624-1.854h4.359V3.57C6.076 1.543 5 .28 3.274.28 1.614.28.414 1.611.414 3.454m2.847-2.208c.859 0 1.431.603 1.511 1.593H1.741c.125-1.035.662-1.593 1.52-1.593" id="t"/><linearGradient x1="-1032.75%" y1="63.788%" x2="1862.118%" y2="26.953%" id="u"><stop stop-color="#D1D1D1" offset="0%"/><stop stop-color="#9D9D9C" offset="100%"/></linearGradient><path d="M1.592 1.315V.45H.357v5.875h1.304V3.16c0-1.355.652-1.788 1.441-1.788 1.04 0 1.144.73 1.144 1.536v3.417h1.303V2.407c0-1.332-.64-2.116-2-2.116-.882 0-1.465.319-1.957 1.024" id="w"/><linearGradient x1="-1254.449%" y1="66.099%" x2="1901.89%" y2="28.026%" id="x"><stop stop-color="#D1D1D1" offset="0%"/><stop stop-color="#9D9D9C" offset="100%"/></linearGradient><path d="M3.491.438L.346 8.556h1.476l.8-2.152h3.226l.778 2.152h1.532L5.013.438H3.491zm.767 1.48L5.47 5.334H2.99l1.269-3.416z" id="z"/><linearGradient x1="-948.579%" y1="63.747%" x2="1149.287%" y2="35.445%" id="A"><stop stop-color="#D1D1D1" offset="0%"/><stop stop-color="#9D9D9C" offset="100%"/></linearGradient><path d="M.085 3.444c0 1.776 1.108 3.028 2.904 3.028 1.475 0 2.528-.922 2.71-2.369h-1.28c-.136.867-.651 1.345-1.43 1.345-.994 0-1.578-.775-1.578-2.072 0-1.31.618-2.106 1.624-2.106.71 0 1.18.41 1.327 1.15h1.292C5.505 1.065 4.533.268 3.023.268 1.228.268.086 1.508.086 3.444" id="C"/><linearGradient x1="-1464.484%" y1="69.249%" x2="1454.201%" y2="32.221%" id="D"><stop stop-color="#D1D1D1" offset="0%"/><stop stop-color="#9D9D9C" offset="100%"/></linearGradient><path d="M.485 2.26H1.72c.103-.763.47-1.047 1.315-1.047.824 0 1.212.284 1.212.888 0 .215-.023.353-.079.422-.127.17-.39.227-1.292.34-1.18.15-2.643.297-2.643 1.856 0 1.081.766 1.753 1.99 1.753.778 0 1.533-.194 2.07-.705.091.511.458.705.962.705.25 0 .433-.022.846-.125v-.911c-.16.023-.206.023-.3.023-.237 0-.306-.091-.306-.432V2.044C5.495.78 4.465.268 3.069.268 1.629.268.633.814.485 2.26M1.57 4.673c0-.774.686-.888 1.293-.98.469-.067.95-.078 1.372-.317v.694c0 .352.011.74-.263 1.012-.297.297-.8.468-1.338.468-.675 0-1.064-.319-1.064-.877" id="F"/><linearGradient x1="-1508.929%" y1="70.9%" x2="1283.947%" y2="33.87%" id="G"><stop stop-color="#D1D1D1" offset="0%"/><stop stop-color="#9D9D9C" offset="100%"/></linearGradient><path d="M5.048.45v2.995c-.41-.604-1.04-.923-1.875-.923-1.635 0-2.676 1.195-2.676 3.085 0 1.901 1.051 3.108 2.721 3.108.882 0 1.522-.33 1.888-.968v.809H6.33V.45H5.048zM1.811 5.584c0-1.251.619-2.015 1.602-2.015 1.051 0 1.67.752 1.67 2.038 0 1.298-.606 2.06-1.625 2.06-1.018 0-1.647-.796-1.647-2.083z" id="I"/><linearGradient x1="-1628.572%" y1="66.736%" x2="1181.325%" y2="38.937%" id="J"><stop stop-color="#D1D1D1" offset="0%"/><stop stop-color="#9D9D9C" offset="100%"/></linearGradient><path d="M.142 3.455c0 1.753 1.088 3.062 2.906 3.062 1.326 0 2.378-.74 2.676-2.025H4.476c-.262.75-.686 1.068-1.406 1.068-1.006 0-1.59-.67-1.624-1.854h4.358V3.57C5.804 1.543 4.73.28 3.002.28 1.343.28.142 1.611.142 3.454M2.99 1.247c.857 0 1.43.603 1.51 1.593H1.469c.127-1.035.664-1.593 1.522-1.593" id="L"/><linearGradient x1="-1799.977%" y1="73.552%" x2="1094.884%" y2="36.714%" id="M"><stop stop-color="#D1D1D1" offset="0%"/><stop stop-color="#9D9D9C" offset="100%"/></linearGradient><path d="M4.82 1.292C4.547.644 3.94.291 3.174.291c-.824 0-1.384.353-1.853.99v-.83H.086v5.874h1.303V2.943c0-.91.436-1.56 1.35-1.56.869 0 .972.559.972 1.264v3.678h1.304v-3.45c0-.922.434-1.492 1.292-1.492.904 0 1.053.615 1.053 1.331v3.61h1.303V2.158C8.663.951 7.806.291 6.731.291c-.824 0-1.453.353-1.91 1.001" id="O"/><linearGradient x1="-1265.726%" y1="76.58%" x2="644.903%" y2="38.505%" id="P"><stop stop-color="#D1D1D1" offset="0%"/><stop stop-color="#9D9D9C" offset="100%"/></linearGradient><path d="M4.902.45L3.415 4.777 1.836.45H.406L2.67 6.153c-.17.512-.341 1.332-1.005 1.332-.16 0-.332-.011-.687-.08V8.5c.447.057.63.068.904.068 1.453 0 1.773-1.23 2.195-2.357L6.262.45h-1.36z" id="R"/><linearGradient x1="-2012.327%" y1="70.486%" x2="786.348%" y2="42.183%" id="S"><stop stop-color="#D1D1D1" offset="0%"/><stop stop-color="#9D9D9C" offset="100%"/></linearGradient></defs><g fill="none" fill-rule="evenodd"><path d="M49.27 28.639l.025 10.392s4.762-1.723 10.989-8.519c2.068-2.257 3.03-5.29 2.826-7.44-.27-2.861-1.138-4.504-4.373-5.348-1.904 4.958-9.467 10.915-9.467 10.915" fill="url(#a)" transform="translate(0 .156)"/><path d="M7.788 47.69c.788 1.42 2.162 2.778 4.542 3.268 2.86.59 5.338.427 5.338.427v-9.093s-3.104-.053-5.551-.053c-1.566 0-2.803-.676-4.18-.891-1.017 2.314-1.22 4.411-.149 6.341z" fill="url(#b)" transform="translate(0 .156)"/><path d="M45.934 65.391a12.001 12.001 0 0 1-1.735-1.204c-2.258-1.875-3.613-4.87-3.613-8.505 0-4.248 1.435-6.995 3.613-9.216a11.575 11.575 0 0 1 2.463-1.891l-.021-29.645a43.463 43.463 0 0 1 6.646-.514c7.338 0 9.92 2.966 10.739 4.41 0 0-3.62-8.644-3.967-9.376-.799-1.686-3.362-4.351-14.087-3.267-12.397 1.253-22.954 6.367-29.133 10.085-6.18 3.715-12.45 8.823-16.102 16.87-.907 2 .505 5.18.505 5.18l3.569 7.983c-.657-1.605-2.197-8.485 13.053-19.507 2.275-1.643 5.299-3.73 14.434-7.76a40.597 40.597 0 0 1 2.559-1.047l-.035 47.404h11.112z" fill="url(#c)" transform="translate(0 .156)"/><path d="M20.01 28.367l-.002 37.137 11.91.043.022-43.455c-4.291 1.996-7.254 3.34-11.93 6.275M31.869 6.534l.03-6.017H20.048v11.35c3.365-1.777 6.091-3.347 11.822-5.333" fill="#36A9E0"/><path d="M4.81 46.458c.1.238.179.36.179.36l-.178-.36z" fill="#D33616"/><g transform="translate(79.022 44.224)"><mask id="f" fill="#fff"><use xlink:href="#d"/></mask><path d="M4.72.885c-2.015.286-4.547.648-4.547.648s.29 1.109.404 1.909c.396 2.754.537 3.527.537 6.634V20.12H9.78l-.008-9.765c0-.802.387-2.894 2.23-2.857 1.899.04 2.1 1.513 2.1 2.342v10.28h8.62l.076-13.802c0-1.646.206-3.599-1.62-4.785C19.915.713 18.543.37 17.49.323c-1.05-.047-2.123.182-3.727 1.011-1.605.83-1.656.987-2.655 1.442-.592.273-1.336-.14-1.41-.869C9.6.964 9.434.006 9.434.006s-1.736.307-4.715.88" fill="url(#e)" mask="url(#f)"/></g><g transform="translate(42.033 44.782)"><mask id="i" fill="#fff"><use xlink:href="#g"/></mask><path d="M3.233 3.3C1.053 5.52.347 8.421.347 10.86c0 3.637 1.493 6.379 3.35 7.714 1.538 1.108 4.09 2.193 7.83 2.193 3.313 0 6.174-.543 7.618-2.005 0 0-1.193-1.11-2.322-3.833 0 0-.945.28-1.493.474-1.08.381-2.453.596-3.1.575-1.418-.05-2.522-.613-3.076-1.05-.65-.51-.98-1.6-1.153-2.085l9.106-1.072a16.8 16.8 0 0 1-.076-1.612c0-2.281.488-4.324 1.461-6.131a10.21 10.21 0 0 0-.628-.752c-2.096-2.273-4.203-3.21-7.052-3.21-3.266 0-5.4 1.016-7.58 3.235m6.15 6.295c-.663-.091-1.268-.76-1.268-1.374 0-.908.297-1.228.879-1.923.439-.526 1.51-.825 2.22-.825.589 0 1.343.49 1.82 1.212.476.72.603 1.2.465 1.834-.052.236-.408.683-1.117.763-.203.028-.747.063-1.579.222-.416.086-.733.12-1.003.12-.15 0-.287-.011-.417-.03" fill="url(#h)" mask="url(#i)"/></g><g transform="translate(60.527 44.224)"><mask id="l" fill="#fff"><use xlink:href="#j"/></mask><path d="M3.21 3.24C1.03 5.459.324 8.36.324 10.8c0 3.636 1.494 6.378 3.35 7.714 1.538 1.107 4.09 2.191 7.83 2.191 2.538 0 4.808-.32 6.381-1.127V17.04a16.322 16.322 0 0 1-1.086-2.172s-.943.28-1.492.474c-1.08.382-2.453.598-3.1.574-1.419-.049-2.522-.611-3.077-1.047-.649-.513-.98-1.6-1.153-2.088l9.908-1.102v-.406a25.593 25.593 0 0 1-.045-1.47c0-.16.011-.31.03-.452-.06-2.544-.354-4.868-.875-6.977C15.167.71 13.255.006 10.788.006 7.523.006 5.39 1.02 3.21 3.24m6.15 6.294c-.664-.089-1.269-.76-1.269-1.373 0-.908.297-1.229.878-1.923.44-.525 1.512-.824 2.221-.824.589 0 1.343.489 1.82 1.21.476.722.603 1.2.464 1.837-.05.234-.407.68-1.117.76-.203.028-.746.063-1.578.224a4.97 4.97 0 0 1-.998.119c-.153 0-.29-.011-.422-.03" fill="url(#k)" mask="url(#l)"/></g><path d="M44.518 52.407s1.501-3.521 3.646-5.23c2.145-1.709-3.54.693-3.646 5.016m4.787 7.045s2.559 4.323 6.638 3.651c2.537-.419 2.529-.85 2.529-.85l-.335-1.68s-.89 1.198-3.163 1.333c-3.343.202-5.669-2.454-5.669-2.454m14.004-7.323s1.502-3.522 3.647-5.23c2.144-1.708-3.539.693-3.647 5.017m4.788 7.045s2.558 4.322 6.637 3.65c2.536-.418 2.53-.85 2.53-.85l-.334-1.68s-.89 1.2-3.164 1.335c-3.343.2-5.67-2.455-5.67-2.455m23.233-10.45s4.772-2.403 6.757-1.28c1.984 1.12 2.681 1.6 2.681 1.6s-.912-3.07-4.344-3.255c-3.091-.168-5.094 2.935-5.094 2.935M80.337 46.31l.322 5.979s.137-4.537 1.14-5.23c1.004-.694 5.348-1.301 5.348-1.301l-6.81.553z" fill="#FEFEFE"/><path fill="url(#m)" d="M20.028 78.998h1.441v-8.106h-1.44z"/><g transform="translate(22.418 70.442)"><mask id="p" fill="#fff"><use xlink:href="#n"/></mask><path fill="url(#o)" mask="url(#p)" d="M.001.45v1.229h2.596v6.877h1.43V1.679h2.596V.449z"/></g><g transform="translate(28.022 72.673)"><mask id="s" fill="#fff"><use xlink:href="#q"/></mask><path d="M.22 3.455c0 1.753 1.086 3.062 2.904 3.062 1.326 0 2.378-.74 2.677-2.025H4.554c-.263.75-.687 1.068-1.407 1.068-1.006 0-1.59-.67-1.624-1.854h4.358V3.57C5.88 1.543 4.805.28 3.078.28 1.42.28.22 1.611.22 3.454m2.848-2.208c.858 0 1.429.603 1.51 1.593H1.545c.126-1.035.664-1.593 1.522-1.593" fill="url(#r)" mask="url(#s)"/></g><g transform="translate(34.187 72.673)"><mask id="v" fill="#fff"><use xlink:href="#t"/></mask><path d="M.414 3.455c0 1.753 1.086 3.062 2.905 3.062 1.326 0 2.379-.74 2.677-2.025H4.749c-.264.75-.686 1.068-1.408 1.068-1.005 0-1.59-.67-1.624-1.854h4.359V3.57C6.076 1.543 5 .28 3.274.28 1.614.28.414 1.611.414 3.454m2.847-2.208c.859 0 1.431.603 1.511 1.593H1.741c.125-1.035.662-1.593 1.52-1.593" fill="url(#u)" mask="url(#v)"/></g><g transform="translate(40.912 72.673)"><mask id="y" fill="#fff"><use xlink:href="#w"/></mask><path d="M1.592 1.315V.45H.357v5.875h1.304V3.16c0-1.355.652-1.788 1.441-1.788 1.04 0 1.144.73 1.144 1.536v3.417h1.303V2.407c0-1.332-.64-2.116-2-2.116-.882 0-1.465.319-1.957 1.024" fill="url(#x)" mask="url(#y)"/></g><g transform="translate(49.88 70.442)"><mask id="B" fill="#fff"><use xlink:href="#z"/></mask><path d="M3.491.438L.346 8.556h1.476l.8-2.152h3.226l.778 2.152h1.532L5.013.438H3.491zm.767 1.48L5.47 5.334H2.99l1.269-3.416z" fill="url(#A)" mask="url(#B)"/></g><g transform="translate(58.286 72.673)"><mask id="E" fill="#fff"><use xlink:href="#C"/></mask><path d="M.085 3.444c0 1.776 1.108 3.028 2.904 3.028 1.475 0 2.528-.922 2.71-2.369h-1.28c-.136.867-.651 1.345-1.43 1.345-.994 0-1.578-.775-1.578-2.072 0-1.31.618-2.106 1.624-2.106.71 0 1.18.41 1.327 1.15h1.292C5.505 1.065 4.533.268 3.023.268 1.228.268.086 1.508.086 3.444" fill="url(#D)" mask="url(#E)"/></g><g transform="translate(64.45 72.673)"><mask id="H" fill="#fff"><use xlink:href="#F"/></mask><path d="M.485 2.26H1.72c.103-.763.47-1.047 1.315-1.047.824 0 1.212.284 1.212.888 0 .215-.023.353-.079.422-.127.17-.39.227-1.292.34-1.18.15-2.643.297-2.643 1.856 0 1.081.766 1.753 1.99 1.753.778 0 1.533-.194 2.07-.705.091.511.458.705.962.705.25 0 .433-.022.846-.125v-.911c-.16.023-.206.023-.3.023-.237 0-.306-.091-.306-.432V2.044C5.495.78 4.465.268 3.069.268 1.629.268.633.814.485 2.26M1.57 4.673c0-.774.686-.888 1.293-.98.469-.067.95-.078 1.372-.317v.694c0 .352.011.74-.263 1.012-.297.297-.8.468-1.338.468-.675 0-1.064-.319-1.064-.877" fill="url(#G)" mask="url(#H)"/></g><g transform="translate(70.615 70.442)"><mask id="K" fill="#fff"><use xlink:href="#I"/></mask><path d="M5.048.45v2.995c-.41-.604-1.04-.923-1.875-.923-1.635 0-2.676 1.195-2.676 3.085 0 1.901 1.051 3.108 2.721 3.108.882 0 1.522-.33 1.888-.968v.809H6.33V.45H5.048zM1.811 5.584c0-1.251.619-2.015 1.602-2.015 1.051 0 1.67.752 1.67 2.038 0 1.298-.606 2.06-1.625 2.06-1.018 0-1.647-.796-1.647-2.083z" fill="url(#J)" mask="url(#K)"/></g><g transform="translate(77.901 72.673)"><mask id="N" fill="#fff"><use xlink:href="#L"/></mask><path d="M.142 3.455c0 1.753 1.088 3.062 2.906 3.062 1.326 0 2.378-.74 2.676-2.025H4.476c-.262.75-.686 1.068-1.406 1.068-1.006 0-1.59-.67-1.624-1.854h4.358V3.57C5.804 1.543 4.73.28 3.002.28 1.343.28.142 1.611.142 3.454M2.99 1.247c.857 0 1.43.603 1.51 1.593H1.469c.127-1.035.664-1.593 1.522-1.593" fill="url(#M)" mask="url(#N)"/></g><g transform="translate(84.626 72.673)"><mask id="Q" fill="#fff"><use xlink:href="#O"/></mask><path d="M4.82 1.292C4.547.644 3.94.291 3.174.291c-.824 0-1.384.353-1.853.99v-.83H.086v5.874h1.303V2.943c0-.91.436-1.56 1.35-1.56.869 0 .972.559.972 1.264v3.678h1.304v-3.45c0-.922.434-1.492 1.292-1.492.904 0 1.053.615 1.053 1.331v3.61h1.303V2.158C8.663.951 7.806.291 6.731.291c-.824 0-1.453.353-1.91 1.001" fill="url(#P)" mask="url(#Q)"/></g><g transform="translate(93.593 72.673)"><mask id="T" fill="#fff"><use xlink:href="#R"/></mask><path d="M4.902.45L3.415 4.777 1.836.45H.406L2.67 6.153c-.17.512-.341 1.332-1.005 1.332-.16 0-.332-.011-.687-.08V8.5c.447.057.63.068.904.068 1.453 0 1.773-1.23 2.195-2.357L6.262.45h-1.36z" fill="url(#S)" mask="url(#T)"/></g></g></svg>